<svg width="131" height="30" viewBox="0 0 131 30" fill="none" xmlns="http://www.w3.org/2000/svg">
<path d="M17.5143 21.8315V25.7312C17.5143 26.3861 17.3952 26.9517 17.1273 27.428C16.8594 27.9043 16.5022 28.2913 16.0556 28.6188C15.6091 28.9462 15.103 29.1546 14.5672 29.3035C14.0016 29.4523 13.436 29.5416 12.8406 29.5416H4.62446C4.02908 29.5416 3.46347 29.4523 2.92764 29.2737C2.3918 29.0951 1.9155 28.8569 1.49874 28.5295C1.08198 28.202 0.754522 27.7853 0.486604 27.309C0.218685 26.8327 0.0996094 26.2671 0.0996094 25.6419V20.7598C0.0996094 19.6882 0.486603 18.8546 1.29036 18.2593C2.09411 17.6639 3.16579 17.3662 4.56492 17.3662H14.8649L17.5738 20.4324H3.19556V26.3861H14.3588V25.0168H8.88138L11.6499 21.8613H17.5143V21.8315Z" fill="white"/>
<path d="M32.2502 17.3069L34.9591 20.4028H27.8147V29.5418H24.7485V20.4028H17.5742V17.3069H32.2502Z" fill="white"/>
<path d="M94.9728 17.3069L97.6818 20.4028H90.5373V29.5418H87.4711V20.4028H80.2969V17.3069H94.9728Z" fill="black"/>
<path d="M47.1646 29.5418H38.7401C38.2638 29.5418 37.7875 29.4525 37.341 29.2441C36.8944 29.0358 36.4777 28.7678 36.1204 28.4106C35.7632 28.0534 35.4953 27.6664 35.2571 27.2199C35.0488 26.7733 34.9297 26.297 34.9297 25.791V17.3069H38.1149V26.3566H47.1349L47.1646 29.5418Z" fill="white"/>
<path d="M130.1 29.5418H121.676C121.199 29.5418 120.723 29.4525 120.276 29.2441C119.83 29.0358 119.413 28.7678 119.056 28.4106C118.699 28.0534 118.431 27.6664 118.193 27.2199C117.984 26.7733 117.865 26.297 117.865 25.791V17.3069H121.05V26.3566H130.07L130.1 29.5418Z" fill="black"/>
<path d="M49.3071 17.3662H62.197C62.7328 17.3662 63.2686 17.4555 63.7449 17.6341C64.251 17.8127 64.6678 18.0807 65.0548 18.4081C65.4418 18.7356 65.7394 19.1226 65.9478 19.5989C66.1562 20.0752 66.2753 20.5812 66.2753 21.1468V25.6121C66.2753 26.1778 66.1562 26.6838 65.9181 27.1303C65.6799 27.6066 65.3822 27.9936 64.9952 28.3211C64.6082 28.6486 64.1617 28.9165 63.6854 29.0951C63.1793 29.2737 62.6733 29.363 62.1077 29.363H49.2773V17.3662H49.3071ZM63.1496 20.4026H52.4031V26.4457H63.1496V20.4026Z" fill="black"/>
<path d="M77.5278 17.3367L80.2962 20.3731H70.7405V21.8317H80.2962V24.9574H70.7405V26.2673H80.2962V29.4525H71.9015C71.3358 29.4525 70.8 29.3632 70.2939 29.1548C69.7879 28.9762 69.3413 28.7083 68.9544 28.3511C68.5674 27.9939 68.2399 27.6069 68.0018 27.1306C67.7636 26.6543 67.6445 26.1184 67.6445 25.5528V21.1768C67.6445 20.5814 67.7636 20.0158 67.972 19.5395C68.1804 19.0632 68.5078 18.6465 68.8948 18.319C69.2818 17.9916 69.7283 17.7237 70.2344 17.5748C70.7405 17.3962 71.3061 17.3069 71.9015 17.3069H77.5278V17.3367Z" fill="black"/>
<path d="M93.9902 29.4225L98.6639 20.3729C98.9021 19.9263 99.1402 19.5096 99.3486 19.1226C99.557 18.7653 99.8249 18.4379 100.063 18.17C100.331 17.9021 100.629 17.7234 100.956 17.5746C101.284 17.4258 101.671 17.3662 102.117 17.3662C102.564 17.3662 102.921 17.4258 103.248 17.5746C103.576 17.7234 103.844 17.9318 104.082 18.17C104.32 18.4379 104.558 18.7653 104.796 19.1226C105.005 19.5096 105.243 19.9263 105.511 20.4026L110.214 29.4225H106.88L105.064 26.2671H99.0807L97.4136 29.4225H93.9902ZM103.516 23.2009L102.087 20.6408L100.658 23.2009H103.516Z" fill="black"/>
<path d="M115.274 29.5118H111.91V17.3662H115.274V29.5118Z" fill="black"/>
<path d="M65.2637 7.09615C65.6507 6.82823 78.1535 1.58894 80.4159 1.17217C82.6784 0.755413 91.2815 -2.10239 123.194 6.11378C123.194 6.11378 99.2298 6.3817 80.0587 8.13805L103.1 5.16118C103.1 5.16118 100.778 3.4346 93.8119 2.72015L92.2937 5.63748L92.8593 2.54153C92.8593 2.5713 84.2561 0.100499 65.2637 7.09615Z" fill="white"/>
<path d="M42.6699 15.1634L45.0514 20.2837L43.2355 21.4744L45.8849 20.6111C45.8849 20.6111 43.8904 15.2527 43.9797 15.5207C45.5277 14.2108 49.3976 12.2759 49.3976 12.2759C49.3976 12.2759 45.7361 13.1094 42.6699 15.1634Z" fill="white"/>
<path d="M130.101 14.0919L127.035 13.6454L127.303 9.62658L129.387 7.87023L125.666 6.73902C125.666 6.73902 122.093 7.27485 110.871 7.39393C98.9632 7.513 73.5407 9.15028 73.5407 9.15028L72.4392 8.16792C73.2132 8.07861 73.4514 7.513 73.4514 7.513L71.1592 7.30463L73.4811 7.18554C74.404 6.73901 73.1835 6.08411 73.1835 6.08411C70.4745 5.36966 69.6707 7.09624 69.6707 7.09624L71.4866 8.49537L72.856 9.92427L71.5164 9.38844L67.8549 11.7997L69.5219 9.38844C53.8636 5.10174 42.8789 13.5561 42.8789 13.5561C42.8789 13.5561 48.9815 10.341 55.739 9.8945C54.2803 10.6387 52.1965 12.3355 51.0951 16.1757C51.2141 15.7589 53.03 10.4601 60.6508 10.3113C65.771 10.4303 67.319 13.8537 67.7656 14.8361C70.9806 10.9364 75.3268 10.6387 75.3268 10.6387C75.3268 10.6387 88.812 9.74566 97.6236 9.47774C103.488 9.26936 108.578 9.03121 112.687 9.15028C111.585 9.65635 109.531 10.8471 107.924 13.3179C107.924 13.3179 112.448 10.4899 117.717 10.7578C119.563 10.9066 120.516 11.4127 121.439 12.0379C125.487 14.6873 124.802 19.8968 124.802 19.8968L130.101 14.0919Z" fill="white"/>
<path d="M51.0653 16.2053C51.0355 16.2351 51.0355 16.2351 51.0653 16.2053C51.0355 16.2351 51.0653 16.2351 51.0653 16.2053Z" fill="white"/>
<path d="M101.91 12.0378L100.63 12.1271L99.5586 14.0026H100.72L101.91 12.0378Z" fill="white"/>
<path d="M99.5292 12.2163L98.4873 12.2758L97.5645 14.0024H98.4873L99.5292 12.2163Z" fill="white"/>
<path d="M95.8379 14.0025H96.4928L97.3561 12.3652L96.6416 12.4248L95.8379 14.0025Z" fill="white"/>
<path d="M103.041 11.9484L101.791 14.0025H103.518L104.946 11.7996L103.041 11.9484Z" fill="white"/>
<path d="M95.5098 12.5142L76.041 14.0026H94.7953L95.5098 12.5142Z" fill="white"/>
</svg>
